<svg xmlns="http://www.w3.org/2000/svg" viewBox="0 0 24 24" fill="none" stroke="currentColor" stroke-width="2" stroke-linecap="round" stroke-linejoin="round" class="lucide lucide-fingerprint"><path d="M12 12h.01"/><path d="M18 3a10.93 10.93 0 0 0-11.66 2"/><path d="M21 7v.01"/><path d="M3 7v.01"/><path d="M21 11v.01"/><path d="M3 11v.01"/><path d="M21 15v.01"/><path d="M3 15v.01"/><path d="M21 19v.01"/><path d="M3 19v.01"/><path d="M6 19a12.04 12.04 0 0 1 12 0"/><path d="M12 21h.01"/><path d="M12 7a5 5 0 0 0-5 5"/><path d="M17 12a5 5 0 0 0-5-5"/><path d="M9 12a3 3 0 0 1 3-3"/><path d="M15 12a3 3 0 0 1-3-3"/></svg>